<svg id="svg" version="1.1" width="400" height="331.42857142857144" viewBox="0 0 400 331.42857142857144" xmlns="http://www.w3.org/2000/svg" xmlns:xlink="http://www.w3.org/1999/xlink" ><g id="svgg"><path id="path0" d="M337.977 3.151 L 337.977 6.302 332.504 6.302 C 327.861 6.302,327.032 6.377,327.032 6.799 C 327.032 7.073,326.882 7.297,326.700 7.297 C 326.493 7.297,326.368 9.287,326.368 12.604 L 326.368 17.910 321.544 17.910 C 314.939 17.910,315.091 17.758,315.091 24.363 C 315.091 27.358,314.965 29.187,314.760 29.187 C 314.577 29.187,314.428 29.411,314.428 29.685 C 314.428 30.090,313.875 30.182,311.443 30.182 C 309.674 30.182,308.458 30.318,308.458 30.514 C 308.458 30.697,308.159 30.846,307.794 30.846 C 307.430 30.846,307.131 30.995,307.131 31.177 C 307.131 31.360,306.833 31.509,306.468 31.509 C 306.025 31.509,305.804 31.730,305.804 32.172 C 305.804 32.537,305.655 32.836,305.473 32.836 C 305.290 32.836,305.141 33.134,305.141 33.499 C 305.141 33.868,304.920 34.163,304.643 34.163 C 304.240 34.163,304.146 34.700,304.146 37.005 C 304.146 39.027,304.009 39.985,303.672 40.322 C 303.263 40.731,283.118 40.796,155.911 40.796 C 57.940 40.796,8.624 40.907,8.624 41.128 C 8.624 41.310,8.325 41.459,7.960 41.459 C 7.518 41.459,7.297 41.680,7.297 42.123 C 7.297 42.491,7.076 42.786,6.799 42.786 C 6.361 42.786,6.302 46.545,6.302 74.627 C 6.302 102.709,6.361 106.468,6.799 106.468 C 7.076 106.468,7.297 106.762,7.297 107.131 C 7.297 107.573,7.518 107.794,7.960 107.794 C 8.329 107.794,8.624 108.015,8.624 108.292 C 8.624 108.710,9.361 108.789,13.267 108.789 L 17.910 108.789 17.910 124.876 C 17.910 135.379,18.026 140.962,18.242 140.962 C 18.425 140.962,18.574 141.260,18.574 141.625 C 18.574 142.067,18.795 142.289,19.237 142.289 C 19.602 142.289,19.900 142.438,19.900 142.620 C 19.900 142.826,21.669 142.952,24.544 142.952 L 29.187 142.952 29.187 159.038 C 29.187 169.541,29.303 175.124,29.519 175.124 C 29.701 175.124,29.851 175.423,29.851 175.788 C 29.851 176.274,30.072 176.451,30.680 176.451 C 31.136 176.451,31.509 176.600,31.509 176.783 C 31.509 176.988,33.278 177.114,36.153 177.114 L 40.796 177.114 40.796 192.537 C 40.796 202.598,40.911 207.960,41.128 207.960 C 41.310 207.960,41.459 208.419,41.459 208.979 C 41.459 210.274,42.131 210.945,43.426 210.945 C 43.986 210.945,44.444 211.095,44.444 211.277 C 44.444 211.479,45.937 211.609,48.259 211.609 L 52.073 211.609 52.073 216.773 C 52.073 220.807,52.177 222.042,52.547 222.412 C 52.945 222.810,55.699 222.886,69.794 222.886 L 86.567 222.886 86.567 226.202 C 86.567 228.192,86.700 229.519,86.899 229.519 C 87.081 229.519,87.231 230.116,87.231 230.846 C 87.231 231.575,87.380 232.172,87.562 232.172 C 87.745 232.172,87.894 232.332,87.894 232.528 C 87.894 233.266,88.889 233.831,90.192 233.831 C 90.935 233.831,91.542 233.980,91.542 234.163 C 91.542 234.382,106.136 234.494,134.660 234.494 L 177.778 234.494 177.778 239.138 C 177.778 242.012,177.904 243.781,178.109 243.781 C 178.292 243.781,178.441 244.080,178.441 244.444 C 178.441 244.931,178.662 245.108,179.270 245.108 C 179.726 245.108,180.100 245.257,180.100 245.439 C 180.100 245.659,193.256 245.771,218.905 245.771 L 257.711 245.771 257.711 249.088 C 257.711 251.815,257.800 252.405,258.209 252.405 C 258.568 252.405,258.706 252.773,258.706 253.731 C 258.706 254.461,258.856 255.058,259.038 255.058 C 259.221 255.058,259.370 255.218,259.370 255.413 C 259.370 256.152,260.365 256.716,261.668 256.716 C 262.411 256.716,263.018 256.866,263.018 257.048 C 263.018 257.246,264.290 257.380,266.169 257.380 C 268.049 257.380,269.320 257.514,269.320 257.711 C 269.320 257.932,233.049 258.043,161.170 258.043 C 67.883 258.043,52.955 258.108,52.547 258.517 C 51.837 259.227,51.837 301.967,52.547 302.677 C 52.918 303.048,54.174 303.151,58.351 303.151 L 63.682 303.151 63.682 306.965 C 63.682 309.287,63.811 310.779,64.013 310.779 C 64.196 310.779,64.345 311.238,64.345 311.798 C 64.345 313.041,65.008 313.765,66.145 313.765 C 66.615 313.765,66.998 313.914,66.998 314.096 C 66.998 314.299,68.546 314.428,70.978 314.428 L 74.959 314.428 74.959 319.758 C 74.959 323.936,75.061 325.191,75.432 325.563 C 76.018 326.149,132.007 326.289,132.007 325.705 C 132.007 325.508,133.223 325.373,134.992 325.373 C 137.424 325.373,137.977 325.281,137.977 324.876 C 137.977 324.599,138.272 324.378,138.640 324.378 C 139.005 324.378,139.303 324.229,139.303 324.046 C 139.303 323.864,139.602 323.715,139.967 323.715 C 140.409 323.715,140.630 323.494,140.630 323.051 C 140.630 322.687,140.779 322.388,140.962 322.388 C 141.144 322.388,141.294 322.090,141.294 321.725 C 141.294 321.356,141.515 321.061,141.791 321.061 C 142.196 321.061,142.289 320.509,142.289 318.076 C 142.289 316.307,142.424 315.091,142.620 315.091 C 142.829 315.091,142.952 312.880,142.952 309.121 L 142.952 303.151 177.612 303.151 L 212.272 303.151 212.272 312.769 C 212.272 318.961,212.390 322.388,212.604 322.388 C 212.786 322.388,212.935 322.836,212.935 323.383 C 212.935 323.930,213.085 324.378,213.267 324.378 C 213.449 324.378,213.599 324.602,213.599 324.876 C 213.599 325.207,213.930 325.373,214.594 325.373 C 215.141 325.373,215.589 325.522,215.589 325.705 C 215.589 325.924,226.265 326.036,246.956 326.036 C 279.711 326.036,279.270 326.054,279.270 324.733 C 279.270 324.538,279.420 324.378,279.602 324.378 C 279.808 324.378,279.934 322.546,279.934 319.545 C 279.934 313.623,279.841 313.765,283.724 313.765 C 285.398 313.765,286.567 313.628,286.567 313.433 C 286.567 313.250,286.866 313.101,287.231 313.101 C 287.595 313.101,287.894 312.952,287.894 312.769 C 287.894 312.587,288.192 312.438,288.557 312.438 C 289.044 312.438,289.221 312.217,289.221 311.609 C 289.221 311.153,289.370 310.779,289.552 310.779 C 289.735 310.779,289.884 310.481,289.884 310.116 C 289.884 309.748,290.105 309.453,290.381 309.453 C 290.783 309.453,290.879 308.934,290.879 306.776 C 290.879 303.106,290.812 303.151,296.328 303.151 C 299.108 303.151,300.829 303.024,300.829 302.819 C 300.829 302.637,301.128 302.488,301.493 302.488 C 301.979 302.488,302.156 302.266,302.156 301.658 C 302.156 301.202,302.305 300.829,302.488 300.829 C 302.693 300.829,302.819 299.060,302.819 296.186 L 302.819 291.542 307.721 291.542 C 312.243 291.542,312.660 291.491,313.101 290.879 C 313.364 290.514,313.770 290.216,314.004 290.216 C 314.339 290.216,314.428 287.970,314.428 279.436 L 314.428 268.657 319.071 268.657 C 321.946 268.657,323.715 268.530,323.715 268.325 C 323.715 268.143,324.013 267.993,324.378 267.993 C 324.820 267.993,325.041 267.772,325.041 267.330 C 325.041 266.965,325.191 266.667,325.373 266.667 C 325.589 266.667,325.705 261.802,325.705 252.736 C 325.705 243.671,325.589 238.806,325.373 238.806 C 325.191 238.806,325.041 238.348,325.041 237.787 C 325.041 236.492,324.370 235.821,323.075 235.821 C 322.515 235.821,322.056 235.672,322.056 235.489 C 322.056 235.287,320.564 235.158,318.242 235.158 L 314.428 235.158 314.428 225.539 C 314.428 217.210,314.361 215.920,313.930 215.920 C 313.596 215.920,313.433 215.586,313.433 214.902 C 313.433 213.659,312.770 212.935,311.632 212.935 C 311.163 212.935,310.779 212.786,310.779 212.604 C 310.779 212.401,309.232 212.272,306.799 212.272 C 304.610 212.272,302.819 212.187,302.819 212.082 C 302.819 211.292,303.974 210.945,306.610 210.945 C 308.284 210.945,309.453 210.809,309.453 210.614 C 309.453 210.431,309.751 210.282,310.116 210.282 C 310.485 210.282,310.779 210.061,310.779 209.784 C 310.779 209.508,311.074 209.287,311.443 209.287 C 311.885 209.287,312.106 209.066,312.106 208.624 C 312.106 208.259,312.255 207.960,312.438 207.960 C 312.620 207.960,312.769 207.662,312.769 207.297 C 312.769 206.932,312.919 206.633,313.101 206.633 C 313.296 206.633,313.433 205.473,313.433 203.814 C 313.433 201.529,313.527 200.995,313.930 200.995 C 314.363 200.995,314.428 199.463,314.428 189.197 C 314.428 175.419,314.134 176.451,318.053 176.451 C 319.616 176.451,320.730 176.313,320.730 176.119 C 320.730 175.937,321.028 175.788,321.393 175.788 C 321.758 175.788,322.056 175.638,322.056 175.456 C 322.056 175.274,322.430 175.124,322.886 175.124 C 323.494 175.124,323.715 174.947,323.715 174.461 C 323.715 174.096,323.864 173.798,324.046 173.798 C 324.229 173.798,324.378 173.425,324.378 172.968 C 324.378 172.512,324.527 172.139,324.710 172.139 C 324.905 172.139,325.041 170.978,325.041 169.320 C 325.041 167.662,325.178 166.501,325.373 166.501 C 325.588 166.501,325.705 162.355,325.705 154.726 L 325.705 142.952 328.856 142.952 C 330.735 142.952,332.007 142.818,332.007 142.620 C 332.007 142.438,332.610 142.289,333.348 142.289 C 335.193 142.289,336.318 141.163,336.318 139.319 C 336.318 138.581,336.468 137.977,336.650 137.977 C 336.866 137.977,336.982 132.891,336.982 123.383 L 336.982 108.789 340.299 108.789 C 343.026 108.789,343.615 108.701,343.615 108.292 C 343.615 107.933,343.984 107.794,344.942 107.794 C 345.672 107.794,346.269 107.645,346.269 107.463 C 346.269 107.280,346.429 107.131,346.624 107.131 C 347.363 107.131,347.927 106.136,347.927 104.833 C 347.927 104.090,348.076 103.483,348.259 103.483 C 348.475 103.483,348.590 98.397,348.590 88.889 L 348.590 74.295 351.741 74.295 C 353.621 74.295,354.892 74.161,354.892 73.964 C 354.892 73.781,355.496 73.632,356.234 73.632 C 358.078 73.632,359.204 72.506,359.204 70.662 C 359.204 69.924,359.353 69.320,359.536 69.320 C 359.749 69.320,359.867 66.114,359.867 60.365 L 359.867 51.410 364.858 51.410 C 371.655 51.410,371.476 51.584,371.476 44.957 L 371.476 40.133 385.738 40.133 L 400.000 40.133 400.000 20.066 L 400.000 0.000 368.988 0.000 L 337.977 0.000 337.977 3.151 M292.206 97.512 C 292.206 97.711,290.879 97.844,288.889 97.844 C 286.899 97.844,285.572 97.977,285.572 98.176 C 285.572 98.358,284.975 98.507,284.245 98.507 C 283.389 98.507,282.919 98.658,282.919 98.932 C 282.919 99.165,282.620 99.571,282.255 99.834 C 281.793 100.167,281.592 100.693,281.592 101.566 C 281.592 102.459,281.449 102.819,281.095 102.819 C 280.660 102.819,280.597 104.680,280.597 117.579 L 280.597 132.338 277.446 132.338 C 275.567 132.338,274.295 132.472,274.295 132.670 C 274.295 132.852,273.691 133.002,272.953 133.002 C 271.109 133.002,269.983 134.127,269.983 135.972 C 269.983 136.710,269.834 137.313,269.652 137.313 C 269.436 137.313,269.320 142.399,269.320 151.907 L 269.320 166.501 266.169 166.501 C 264.290 166.501,263.018 166.635,263.018 166.833 C 263.018 167.015,262.411 167.164,261.668 167.164 C 260.365 167.164,259.370 167.729,259.370 168.467 C 259.370 168.663,259.221 168.823,259.038 168.823 C 258.856 168.823,258.706 169.420,258.706 170.149 C 258.706 171.107,258.568 171.476,258.209 171.476 C 257.774 171.476,257.711 173.337,257.711 186.235 L 257.711 200.995 240.299 200.995 L 222.886 200.995 222.886 196.352 C 222.886 193.477,222.759 191.708,222.554 191.708 C 222.371 191.708,222.222 191.335,222.222 190.879 C 222.222 190.216,222.056 190.050,221.393 190.050 C 220.937 190.050,220.564 189.900,220.564 189.718 C 220.564 189.499,207.407 189.386,181.758 189.386 L 142.952 189.386 142.952 186.235 C 142.952 184.356,142.818 183.085,142.620 183.085 C 142.438 183.085,142.289 182.413,142.289 181.592 C 142.289 180.601,142.146 180.100,141.864 180.100 C 141.631 180.100,141.225 179.801,140.962 179.436 C 140.629 178.974,140.103 178.773,139.230 178.773 C 138.541 178.773,137.977 178.624,137.977 178.441 C 137.977 178.223,129.022 178.109,111.774 178.109 L 85.572 178.109 85.572 162.023 C 85.572 151.520,85.457 145.937,85.240 145.937 C 85.058 145.937,84.909 145.564,84.909 145.108 C 84.909 144.500,84.732 144.279,84.245 144.279 C 83.881 144.279,83.582 144.129,83.582 143.947 C 83.582 143.742,81.813 143.615,78.939 143.615 L 74.295 143.615 74.295 128.358 C 74.295 118.408,74.180 113.101,73.964 113.101 C 73.781 113.101,73.632 112.643,73.632 112.082 C 73.632 110.787,72.961 110.116,71.665 110.116 C 71.105 110.116,70.647 109.967,70.647 109.784 C 70.647 109.583,69.154 109.453,66.833 109.453 L 63.018 109.453 63.018 103.317 L 63.018 97.181 177.612 97.181 C 253.787 97.181,292.206 97.292,292.206 97.512 " stroke="none" fill="#ffffff" fill-rule="evenodd"></path><path id="path1" d="M337.977 3.151 L 337.977 6.302 332.504 6.302 C 327.861 6.302,327.032 6.377,327.032 6.799 C 327.032 7.073,326.882 7.297,326.700 7.297 C 326.493 7.297,326.368 9.287,326.368 12.604 L 326.368 17.910 321.544 17.910 C 314.939 17.910,315.091 17.758,315.091 24.363 C 315.091 27.358,314.965 29.187,314.760 29.187 C 314.577 29.187,314.428 29.411,314.428 29.685 C 314.428 30.090,313.875 30.182,311.443 30.182 C 309.674 30.182,308.458 30.318,308.458 30.514 C 308.458 30.697,308.159 30.846,307.794 30.846 C 307.430 30.846,307.131 30.995,307.131 31.177 C 307.131 31.360,306.833 31.509,306.468 31.509 C 306.025 31.509,305.804 31.730,305.804 32.172 C 305.804 32.537,305.655 32.836,305.473 32.836 C 305.290 32.836,305.141 33.134,305.141 33.499 C 305.141 33.868,304.920 34.163,304.643 34.163 C 304.240 34.163,304.146 34.700,304.146 37.005 C 304.146 39.027,304.009 39.985,303.672 40.322 C 303.263 40.731,283.118 40.796,155.911 40.796 C 57.940 40.796,8.624 40.907,8.624 41.128 C 8.624 41.310,8.325 41.459,7.960 41.459 C 7.518 41.459,7.297 41.680,7.297 42.123 C 7.297 42.491,7.076 42.786,6.799 42.786 C 6.361 42.786,6.302 46.545,6.302 74.627 C 6.302 102.709,6.361 106.468,6.799 106.468 C 7.076 106.468,7.297 106.762,7.297 107.131 C 7.297 107.573,7.518 107.794,7.960 107.794 C 8.329 107.794,8.624 108.015,8.624 108.292 C 8.624 108.710,9.361 108.789,13.267 108.789 L 17.910 108.789 17.910 124.876 C 17.910 135.379,18.026 140.962,18.242 140.962 C 18.425 140.962,18.574 141.260,18.574 141.625 C 18.574 142.067,18.795 142.289,19.237 142.289 C 19.602 142.289,19.900 142.438,19.900 142.620 C 19.900 142.826,21.669 142.952,24.544 142.952 L 29.187 142.952 29.187 159.038 C 29.187 169.541,29.303 175.124,29.519 175.124 C 29.701 175.124,29.851 175.423,29.851 175.788 C 29.851 176.274,30.072 176.451,30.680 176.451 C 31.136 176.451,31.509 176.600,31.509 176.783 C 31.509 176.988,33.278 177.114,36.153 177.114 L 40.796 177.114 40.796 192.537 C 40.796 202.598,40.911 207.960,41.128 207.960 C 41.310 207.960,41.459 208.419,41.459 208.979 C 41.459 210.274,42.131 210.945,43.426 210.945 C 43.986 210.945,44.444 211.095,44.444 211.277 C 44.444 211.479,45.937 211.609,48.259 211.609 L 52.073 211.609 52.073 216.773 C 52.073 220.807,52.177 222.042,52.547 222.412 C 52.945 222.810,55.699 222.886,69.794 222.886 L 86.567 222.886 86.567 226.202 C 86.567 228.192,86.700 229.519,86.899 229.519 C 87.081 229.519,87.231 230.116,87.231 230.846 C 87.231 231.575,87.380 232.172,87.562 232.172 C 87.745 232.172,87.894 232.332,87.894 232.528 C 87.894 233.266,88.889 233.831,90.192 233.831 C 90.935 233.831,91.542 233.980,91.542 234.163 C 91.542 234.382,106.136 234.494,134.660 234.494 L 177.778 234.494 177.778 239.138 C 177.778 242.012,177.904 243.781,178.109 243.781 C 178.292 243.781,178.441 244.080,178.441 244.444 C 178.441 244.931,178.662 245.108,179.270 245.108 C 179.726 245.108,180.100 245.257,180.100 245.439 C 180.100 245.659,193.256 245.771,218.905 245.771 L 257.711 245.771 257.711 249.088 C 257.711 251.815,257.800 252.405,258.209 252.405 C 258.568 252.405,258.706 252.773,258.706 253.731 C 258.706 254.461,258.856 255.058,259.038 255.058 C 259.221 255.058,259.370 255.218,259.370 255.413 C 259.370 256.152,260.365 256.716,261.668 256.716 C 262.411 256.716,263.018 256.866,263.018 257.048 C 263.018 257.246,264.290 257.380,266.169 257.380 C 268.049 257.380,269.320 257.514,269.320 257.711 C 269.320 257.932,233.049 258.043,161.170 258.043 C 67.883 258.043,52.955 258.108,52.547 258.517 C 51.837 259.227,51.837 301.967,52.547 302.677 C 52.918 303.048,54.174 303.151,58.351 303.151 L 63.682 303.151 63.682 306.965 C 63.682 309.287,63.811 310.779,64.013 310.779 C 64.196 310.779,64.345 311.238,64.345 311.798 C 64.345 313.041,65.008 313.765,66.145 313.765 C 66.615 313.765,66.998 313.914,66.998 314.096 C 66.998 314.299,68.546 314.428,70.978 314.428 L 74.959 314.428 74.959 319.758 C 74.959 323.936,75.061 325.191,75.432 325.563 C 76.018 326.149,132.007 326.289,132.007 325.705 C 132.007 325.508,133.223 325.373,134.992 325.373 C 137.424 325.373,137.977 325.281,137.977 324.876 C 137.977 324.599,138.272 324.378,138.640 324.378 C 139.005 324.378,139.303 324.229,139.303 324.046 C 139.303 323.864,139.602 323.715,139.967 323.715 C 140.409 323.715,140.630 323.494,140.630 323.051 C 140.630 322.687,140.779 322.388,140.962 322.388 C 141.144 322.388,141.294 322.090,141.294 321.725 C 141.294 321.356,141.515 321.061,141.791 321.061 C 142.196 321.061,142.289 320.509,142.289 318.076 C 142.289 316.307,142.424 315.091,142.620 315.091 C 142.829 315.091,142.952 312.880,142.952 309.121 L 142.952 303.151 177.612 303.151 L 212.272 303.151 212.272 312.769 C 212.272 318.961,212.390 322.388,212.604 322.388 C 212.786 322.388,212.935 322.836,212.935 323.383 C 212.935 323.930,213.085 324.378,213.267 324.378 C 213.449 324.378,213.599 324.602,213.599 324.876 C 213.599 325.207,213.930 325.373,214.594 325.373 C 215.141 325.373,215.589 325.522,215.589 325.705 C 215.589 325.924,226.265 326.036,246.956 326.036 C 279.711 326.036,279.270 326.054,279.270 324.733 C 279.270 324.538,279.420 324.378,279.602 324.378 C 279.808 324.378,279.934 322.546,279.934 319.545 C 279.934 313.623,279.841 313.765,283.724 313.765 C 285.398 313.765,286.567 313.628,286.567 313.433 C 286.567 313.250,286.866 313.101,287.231 313.101 C 287.595 313.101,287.894 312.952,287.894 312.769 C 287.894 312.587,288.192 312.438,288.557 312.438 C 289.044 312.438,289.221 312.217,289.221 311.609 C 289.221 311.153,289.370 310.779,289.552 310.779 C 289.735 310.779,289.884 310.481,289.884 310.116 C 289.884 309.748,290.105 309.453,290.381 309.453 C 290.783 309.453,290.879 308.934,290.879 306.776 C 290.879 303.106,290.812 303.151,296.328 303.151 C 299.108 303.151,300.829 303.024,300.829 302.819 C 300.829 302.637,301.128 302.488,301.493 302.488 C 301.979 302.488,302.156 302.266,302.156 301.658 C 302.156 301.202,302.305 300.829,302.488 300.829 C 302.693 300.829,302.819 299.060,302.819 296.186 L 302.819 291.542 307.721 291.542 C 312.243 291.542,312.660 291.491,313.101 290.879 C 313.364 290.514,313.770 290.216,314.004 290.216 C 314.339 290.216,314.428 287.970,314.428 279.436 L 314.428 268.657 319.071 268.657 C 321.946 268.657,323.715 268.530,323.715 268.325 C 323.715 268.143,324.013 267.993,324.378 267.993 C 324.820 267.993,325.041 267.772,325.041 267.330 C 325.041 266.965,325.191 266.667,325.373 266.667 C 325.589 266.667,325.705 261.802,325.705 252.736 C 325.705 243.671,325.589 238.806,325.373 238.806 C 325.191 238.806,325.041 238.348,325.041 237.787 C 325.041 236.492,324.370 235.821,323.075 235.821 C 322.515 235.821,322.056 235.672,322.056 235.489 C 322.056 235.287,320.564 235.158,318.242 235.158 L 314.428 235.158 314.428 225.539 C 314.428 217.210,314.361 215.920,313.930 215.920 C 313.596 215.920,313.433 215.586,313.433 214.902 C 313.433 213.659,312.770 212.935,311.632 212.935 C 311.163 212.935,310.779 212.786,310.779 212.604 C 310.779 212.401,309.232 212.272,306.799 212.272 C 304.610 212.272,302.819 212.187,302.819 212.082 C 302.819 211.292,303.974 210.945,306.610 210.945 C 308.284 210.945,309.453 210.809,309.453 210.614 C 309.453 210.431,309.751 210.282,310.116 210.282 C 310.485 210.282,310.779 210.061,310.779 209.784 C 310.779 209.508,311.074 209.287,311.443 209.287 C 311.885 209.287,312.106 209.066,312.106 208.624 C 312.106 208.259,312.255 207.960,312.438 207.960 C 312.620 207.960,312.769 207.662,312.769 207.297 C 312.769 206.932,312.919 206.633,313.101 206.633 C 313.296 206.633,313.433 205.473,313.433 203.814 C 313.433 201.529,313.527 200.995,313.930 200.995 C 314.363 200.995,314.428 199.463,314.428 189.197 C 314.428 175.419,314.134 176.451,318.053 176.451 C 319.616 176.451,320.730 176.313,320.730 176.119 C 320.730 175.937,321.028 175.788,321.393 175.788 C 321.758 175.788,322.056 175.638,322.056 175.456 C 322.056 175.274,322.430 175.124,322.886 175.124 C 323.494 175.124,323.715 174.947,323.715 174.461 C 323.715 174.096,323.864 173.798,324.046 173.798 C 324.229 173.798,324.378 173.425,324.378 172.968 C 324.378 172.512,324.527 172.139,324.710 172.139 C 324.905 172.139,325.041 170.978,325.041 169.320 C 325.041 167.662,325.178 166.501,325.373 166.501 C 325.588 166.501,325.705 162.355,325.705 154.726 L 325.705 142.952 328.856 142.952 C 330.735 142.952,332.007 142.818,332.007 142.620 C 332.007 142.438,332.610 142.289,333.348 142.289 C 335.193 142.289,336.318 141.163,336.318 139.319 C 336.318 138.581,336.468 137.977,336.650 137.977 C 336.866 137.977,336.982 132.891,336.982 123.383 L 336.982 108.789 340.299 108.789 C 343.026 108.789,343.615 108.701,343.615 108.292 C 343.615 107.933,343.984 107.794,344.942 107.794 C 345.672 107.794,346.269 107.645,346.269 107.463 C 346.269 107.280,346.429 107.131,346.624 107.131 C 347.363 107.131,347.927 106.136,347.927 104.833 C 347.927 104.090,348.076 103.483,348.259 103.483 C 348.475 103.483,348.590 98.397,348.590 88.889 L 348.590 74.295 351.741 74.295 C 353.621 74.295,354.892 74.161,354.892 73.964 C 354.892 73.781,355.496 73.632,356.234 73.632 C 358.078 73.632,359.204 72.506,359.204 70.662 C 359.204 69.924,359.353 69.320,359.536 69.320 C 359.749 69.320,359.867 66.114,359.867 60.365 L 359.867 51.410 364.858 51.410 C 371.655 51.410,371.476 51.584,371.476 44.957 L 371.476 40.133 385.738 40.133 L 400.000 40.133 400.000 20.066 L 400.000 0.000 368.988 0.000 L 337.977 0.000 337.977 3.151 M292.206 97.512 C 292.206 97.711,290.879 97.844,288.889 97.844 C 286.899 97.844,285.572 97.977,285.572 98.176 C 285.572 98.358,284.975 98.507,284.245 98.507 C 283.389 98.507,282.919 98.658,282.919 98.932 C 282.919 99.165,282.620 99.571,282.255 99.834 C 281.793 100.167,281.592 100.693,281.592 101.566 C 281.592 102.459,281.449 102.819,281.095 102.819 C 280.660 102.819,280.597 104.680,280.597 117.579 L 280.597 132.338 277.446 132.338 C 275.567 132.338,274.295 132.472,274.295 132.670 C 274.295 132.852,273.691 133.002,272.953 133.002 C 271.109 133.002,269.983 134.127,269.983 135.972 C 269.983 136.710,269.834 137.313,269.652 137.313 C 269.436 137.313,269.320 142.399,269.320 151.907 L 269.320 166.501 266.169 166.501 C 264.290 166.501,263.018 166.635,263.018 166.833 C 263.018 167.015,262.411 167.164,261.668 167.164 C 260.365 167.164,259.370 167.729,259.370 168.467 C 259.370 168.663,259.221 168.823,259.038 168.823 C 258.856 168.823,258.706 169.420,258.706 170.149 C 258.706 171.107,258.568 171.476,258.209 171.476 C 257.774 171.476,257.711 173.337,257.711 186.235 L 257.711 200.995 240.299 200.995 L 222.886 200.995 222.886 196.352 C 222.886 193.477,222.759 191.708,222.554 191.708 C 222.371 191.708,222.222 191.335,222.222 190.879 C 222.222 190.216,222.056 190.050,221.393 190.050 C 220.937 190.050,220.564 189.900,220.564 189.718 C 220.564 189.499,207.407 189.386,181.758 189.386 L 142.952 189.386 142.952 186.235 C 142.952 184.356,142.818 183.085,142.620 183.085 C 142.438 183.085,142.289 182.413,142.289 181.592 C 142.289 180.601,142.146 180.100,141.864 180.100 C 141.631 180.100,141.225 179.801,140.962 179.436 C 140.629 178.974,140.103 178.773,139.230 178.773 C 138.541 178.773,137.977 178.624,137.977 178.441 C 137.977 178.223,129.022 178.109,111.774 178.109 L 85.572 178.109 85.572 162.023 C 85.572 151.520,85.457 145.937,85.240 145.937 C 85.058 145.937,84.909 145.564,84.909 145.108 C 84.909 144.500,84.732 144.279,84.245 144.279 C 83.881 144.279,83.582 144.129,83.582 143.947 C 83.582 143.742,81.813 143.615,78.939 143.615 L 74.295 143.615 74.295 128.358 C 74.295 118.408,74.180 113.101,73.964 113.101 C 73.781 113.101,73.632 112.643,73.632 112.082 C 73.632 110.787,72.961 110.116,71.665 110.116 C 71.105 110.116,70.647 109.967,70.647 109.784 C 70.647 109.583,69.154 109.453,66.833 109.453 L 63.018 109.453 63.018 103.317 L 63.018 97.181 177.612 97.181 C 253.787 97.181,292.206 97.292,292.206 97.512 " stroke="none" fill="#ffffff" fill-rule="evenodd"></path><path id="path2" d="M337.977 3.151 L 337.977 6.302 332.504 6.302 C 327.861 6.302,327.032 6.377,327.032 6.799 C 327.032 7.073,326.882 7.297,326.700 7.297 C 326.493 7.297,326.368 9.287,326.368 12.604 L 326.368 17.910 321.544 17.910 C 314.939 17.910,315.091 17.758,315.091 24.363 C 315.091 27.358,314.965 29.187,314.760 29.187 C 314.577 29.187,314.428 29.411,314.428 29.685 C 314.428 30.090,313.875 30.182,311.443 30.182 C 309.674 30.182,308.458 30.318,308.458 30.514 C 308.458 30.697,308.159 30.846,307.794 30.846 C 307.430 30.846,307.131 30.995,307.131 31.177 C 307.131 31.360,306.833 31.509,306.468 31.509 C 306.025 31.509,305.804 31.730,305.804 32.172 C 305.804 32.537,305.655 32.836,305.473 32.836 C 305.290 32.836,305.141 33.134,305.141 33.499 C 305.141 33.868,304.920 34.163,304.643 34.163 C 304.240 34.163,304.146 34.700,304.146 37.005 C 304.146 39.027,304.009 39.985,303.672 40.322 C 303.263 40.731,283.118 40.796,155.911 40.796 C 57.940 40.796,8.624 40.907,8.624 41.128 C 8.624 41.310,8.325 41.459,7.960 41.459 C 7.518 41.459,7.297 41.680,7.297 42.123 C 7.297 42.491,7.076 42.786,6.799 42.786 C 6.361 42.786,6.302 46.545,6.302 74.627 C 6.302 102.709,6.361 106.468,6.799 106.468 C 7.076 106.468,7.297 106.762,7.297 107.131 C 7.297 107.573,7.518 107.794,7.960 107.794 C 8.329 107.794,8.624 108.015,8.624 108.292 C 8.624 108.710,9.361 108.789,13.267 108.789 L 17.910 108.789 17.910 124.876 C 17.910 135.379,18.026 140.962,18.242 140.962 C 18.425 140.962,18.574 141.260,18.574 141.625 C 18.574 142.067,18.795 142.289,19.237 142.289 C 19.602 142.289,19.900 142.438,19.900 142.620 C 19.900 142.826,21.669 142.952,24.544 142.952 L 29.187 142.952 29.187 159.038 C 29.187 169.541,29.303 175.124,29.519 175.124 C 29.701 175.124,29.851 175.423,29.851 175.788 C 29.851 176.274,30.072 176.451,30.680 176.451 C 31.136 176.451,31.509 176.600,31.509 176.783 C 31.509 176.988,33.278 177.114,36.153 177.114 L 40.796 177.114 40.796 192.537 C 40.796 202.598,40.911 207.960,41.128 207.960 C 41.310 207.960,41.459 208.419,41.459 208.979 C 41.459 210.274,42.131 210.945,43.426 210.945 C 43.986 210.945,44.444 211.095,44.444 211.277 C 44.444 211.479,45.937 211.609,48.259 211.609 L 52.073 211.609 52.073 216.773 C 52.073 220.807,52.177 222.042,52.547 222.412 C 52.945 222.810,55.699 222.886,69.794 222.886 L 86.567 222.886 86.567 226.202 C 86.567 228.192,86.700 229.519,86.899 229.519 C 87.081 229.519,87.231 230.116,87.231 230.846 C 87.231 231.575,87.380 232.172,87.562 232.172 C 87.745 232.172,87.894 232.332,87.894 232.528 C 87.894 233.266,88.889 233.831,90.192 233.831 C 90.935 233.831,91.542 233.980,91.542 234.163 C 91.542 234.382,106.136 234.494,134.660 234.494 L 177.778 234.494 177.778 239.138 C 177.778 242.012,177.904 243.781,178.109 243.781 C 178.292 243.781,178.441 244.080,178.441 244.444 C 178.441 244.931,178.662 245.108,179.270 245.108 C 179.726 245.108,180.100 245.257,180.100 245.439 C 180.100 245.659,193.256 245.771,218.905 245.771 L 257.711 245.771 257.711 249.088 C 257.711 251.815,257.800 252.405,258.209 252.405 C 258.568 252.405,258.706 252.773,258.706 253.731 C 258.706 254.461,258.856 255.058,259.038 255.058 C 259.221 255.058,259.370 255.218,259.370 255.413 C 259.370 256.152,260.365 256.716,261.668 256.716 C 262.411 256.716,263.018 256.866,263.018 257.048 C 263.018 257.246,264.290 257.380,266.169 257.380 C 268.049 257.380,269.320 257.514,269.320 257.711 C 269.320 257.932,233.049 258.043,161.170 258.043 C 67.883 258.043,52.955 258.108,52.547 258.517 C 51.837 259.227,51.837 301.967,52.547 302.677 C 52.918 303.048,54.174 303.151,58.351 303.151 L 63.682 303.151 63.682 306.965 C 63.682 309.287,63.811 310.779,64.013 310.779 C 64.196 310.779,64.345 311.238,64.345 311.798 C 64.345 313.041,65.008 313.765,66.145 313.765 C 66.615 313.765,66.998 313.914,66.998 314.096 C 66.998 314.299,68.546 314.428,70.978 314.428 L 74.959 314.428 74.959 319.758 C 74.959 323.936,75.061 325.191,75.432 325.563 C 76.018 326.149,132.007 326.289,132.007 325.705 C 132.007 325.508,133.223 325.373,134.992 325.373 C 137.424 325.373,137.977 325.281,137.977 324.876 C 137.977 324.599,138.272 324.378,138.640 324.378 C 139.005 324.378,139.303 324.229,139.303 324.046 C 139.303 323.864,139.602 323.715,139.967 323.715 C 140.409 323.715,140.630 323.494,140.630 323.051 C 140.630 322.687,140.779 322.388,140.962 322.388 C 141.144 322.388,141.294 322.090,141.294 321.725 C 141.294 321.356,141.515 321.061,141.791 321.061 C 142.196 321.061,142.289 320.509,142.289 318.076 C 142.289 316.307,142.424 315.091,142.620 315.091 C 142.829 315.091,142.952 312.880,142.952 309.121 L 142.952 303.151 177.612 303.151 L 212.272 303.151 212.272 312.769 C 212.272 318.961,212.390 322.388,212.604 322.388 C 212.786 322.388,212.935 322.836,212.935 323.383 C 212.935 323.930,213.085 324.378,213.267 324.378 C 213.449 324.378,213.599 324.602,213.599 324.876 C 213.599 325.207,213.930 325.373,214.594 325.373 C 215.141 325.373,215.589 325.522,215.589 325.705 C 215.589 325.924,226.265 326.036,246.956 326.036 C 279.711 326.036,279.270 326.054,279.270 324.733 C 279.270 324.538,279.420 324.378,279.602 324.378 C 279.808 324.378,279.934 322.546,279.934 319.545 C 279.934 313.623,279.841 313.765,283.724 313.765 C 285.398 313.765,286.567 313.628,286.567 313.433 C 286.567 313.250,286.866 313.101,287.231 313.101 C 287.595 313.101,287.894 312.952,287.894 312.769 C 287.894 312.587,288.192 312.438,288.557 312.438 C 289.044 312.438,289.221 312.217,289.221 311.609 C 289.221 311.153,289.370 310.779,289.552 310.779 C 289.735 310.779,289.884 310.481,289.884 310.116 C 289.884 309.748,290.105 309.453,290.381 309.453 C 290.783 309.453,290.879 308.934,290.879 306.776 C 290.879 303.106,290.812 303.151,296.328 303.151 C 299.108 303.151,300.829 303.024,300.829 302.819 C 300.829 302.637,301.128 302.488,301.493 302.488 C 301.979 302.488,302.156 302.266,302.156 301.658 C 302.156 301.202,302.305 300.829,302.488 300.829 C 302.693 300.829,302.819 299.060,302.819 296.186 L 302.819 291.542 307.721 291.542 C 312.243 291.542,312.660 291.491,313.101 290.879 C 313.364 290.514,313.770 290.216,314.004 290.216 C 314.339 290.216,314.428 287.970,314.428 279.436 L 314.428 268.657 319.071 268.657 C 321.946 268.657,323.715 268.530,323.715 268.325 C 323.715 268.143,324.013 267.993,324.378 267.993 C 324.820 267.993,325.041 267.772,325.041 267.330 C 325.041 266.965,325.191 266.667,325.373 266.667 C 325.589 266.667,325.705 261.802,325.705 252.736 C 325.705 243.671,325.589 238.806,325.373 238.806 C 325.191 238.806,325.041 238.348,325.041 237.787 C 325.041 236.492,324.370 235.821,323.075 235.821 C 322.515 235.821,322.056 235.672,322.056 235.489 C 322.056 235.287,320.564 235.158,318.242 235.158 L 314.428 235.158 314.428 225.539 C 314.428 217.210,314.361 215.920,313.930 215.920 C 313.596 215.920,313.433 215.586,313.433 214.902 C 313.433 213.659,312.770 212.935,311.632 212.935 C 311.163 212.935,310.779 212.786,310.779 212.604 C 310.779 212.401,309.232 212.272,306.799 212.272 C 304.610 212.272,302.819 212.187,302.819 212.082 C 302.819 211.292,303.974 210.945,306.610 210.945 C 308.284 210.945,309.453 210.809,309.453 210.614 C 309.453 210.431,309.751 210.282,310.116 210.282 C 310.485 210.282,310.779 210.061,310.779 209.784 C 310.779 209.508,311.074 209.287,311.443 209.287 C 311.885 209.287,312.106 209.066,312.106 208.624 C 312.106 208.259,312.255 207.960,312.438 207.960 C 312.620 207.960,312.769 207.662,312.769 207.297 C 312.769 206.932,312.919 206.633,313.101 206.633 C 313.296 206.633,313.433 205.473,313.433 203.814 C 313.433 201.529,313.527 200.995,313.930 200.995 C 314.363 200.995,314.428 199.463,314.428 189.197 C 314.428 175.419,314.134 176.451,318.053 176.451 C 319.616 176.451,320.730 176.313,320.730 176.119 C 320.730 175.937,321.028 175.788,321.393 175.788 C 321.758 175.788,322.056 175.638,322.056 175.456 C 322.056 175.274,322.430 175.124,322.886 175.124 C 323.494 175.124,323.715 174.947,323.715 174.461 C 323.715 174.096,323.864 173.798,324.046 173.798 C 324.229 173.798,324.378 173.425,324.378 172.968 C 324.378 172.512,324.527 172.139,324.710 172.139 C 324.905 172.139,325.041 170.978,325.041 169.320 C 325.041 167.662,325.178 166.501,325.373 166.501 C 325.588 166.501,325.705 162.355,325.705 154.726 L 325.705 142.952 328.856 142.952 C 330.735 142.952,332.007 142.818,332.007 142.620 C 332.007 142.438,332.610 142.289,333.348 142.289 C 335.193 142.289,336.318 141.163,336.318 139.319 C 336.318 138.581,336.468 137.977,336.650 137.977 C 336.866 137.977,336.982 132.891,336.982 123.383 L 336.982 108.789 340.299 108.789 C 343.026 108.789,343.615 108.701,343.615 108.292 C 343.615 107.933,343.984 107.794,344.942 107.794 C 345.672 107.794,346.269 107.645,346.269 107.463 C 346.269 107.280,346.429 107.131,346.624 107.131 C 347.363 107.131,347.927 106.136,347.927 104.833 C 347.927 104.090,348.076 103.483,348.259 103.483 C 348.475 103.483,348.590 98.397,348.590 88.889 L 348.590 74.295 351.741 74.295 C 353.621 74.295,354.892 74.161,354.892 73.964 C 354.892 73.781,355.496 73.632,356.234 73.632 C 358.078 73.632,359.204 72.506,359.204 70.662 C 359.204 69.924,359.353 69.320,359.536 69.320 C 359.749 69.320,359.867 66.114,359.867 60.365 L 359.867 51.410 364.858 51.410 C 371.655 51.410,371.476 51.584,371.476 44.957 L 371.476 40.133 385.738 40.133 L 400.000 40.133 400.000 20.066 L 400.000 0.000 368.988 0.000 L 337.977 0.000 337.977 3.151 M292.206 97.512 C 292.206 97.711,290.879 97.844,288.889 97.844 C 286.899 97.844,285.572 97.977,285.572 98.176 C 285.572 98.358,284.975 98.507,284.245 98.507 C 283.389 98.507,282.919 98.658,282.919 98.932 C 282.919 99.165,282.620 99.571,282.255 99.834 C 281.793 100.167,281.592 100.693,281.592 101.566 C 281.592 102.459,281.449 102.819,281.095 102.819 C 280.660 102.819,280.597 104.680,280.597 117.579 L 280.597 132.338 277.446 132.338 C 275.567 132.338,274.295 132.472,274.295 132.670 C 274.295 132.852,273.691 133.002,272.953 133.002 C 271.109 133.002,269.983 134.127,269.983 135.972 C 269.983 136.710,269.834 137.313,269.652 137.313 C 269.436 137.313,269.320 142.399,269.320 151.907 L 269.320 166.501 266.169 166.501 C 264.290 166.501,263.018 166.635,263.018 166.833 C 263.018 167.015,262.411 167.164,261.668 167.164 C 260.365 167.164,259.370 167.729,259.370 168.467 C 259.370 168.663,259.221 168.823,259.038 168.823 C 258.856 168.823,258.706 169.420,258.706 170.149 C 258.706 171.107,258.568 171.476,258.209 171.476 C 257.774 171.476,257.711 173.337,257.711 186.235 L 257.711 200.995 240.299 200.995 L 222.886 200.995 222.886 196.352 C 222.886 193.477,222.759 191.708,222.554 191.708 C 222.371 191.708,222.222 191.335,222.222 190.879 C 222.222 190.216,222.056 190.050,221.393 190.050 C 220.937 190.050,220.564 189.900,220.564 189.718 C 220.564 189.499,207.407 189.386,181.758 189.386 L 142.952 189.386 142.952 186.235 C 142.952 184.356,142.818 183.085,142.620 183.085 C 142.438 183.085,142.289 182.413,142.289 181.592 C 142.289 180.601,142.146 180.100,141.864 180.100 C 141.631 180.100,141.225 179.801,140.962 179.436 C 140.629 178.974,140.103 178.773,139.230 178.773 C 138.541 178.773,137.977 178.624,137.977 178.441 C 137.977 178.223,129.022 178.109,111.774 178.109 L 85.572 178.109 85.572 162.023 C 85.572 151.520,85.457 145.937,85.240 145.937 C 85.058 145.937,84.909 145.564,84.909 145.108 C 84.909 144.500,84.732 144.279,84.245 144.279 C 83.881 144.279,83.582 144.129,83.582 143.947 C 83.582 143.742,81.813 143.615,78.939 143.615 L 74.295 143.615 74.295 128.358 C 74.295 118.408,74.180 113.101,73.964 113.101 C 73.781 113.101,73.632 112.643,73.632 112.082 C 73.632 110.787,72.961 110.116,71.665 110.116 C 71.105 110.116,70.647 109.967,70.647 109.784 C 70.647 109.583,69.154 109.453,66.833 109.453 L 63.018 109.453 63.018 103.317 L 63.018 97.181 177.612 97.181 C 253.787 97.181,292.206 97.292,292.206 97.512 " stroke="none" fill="#ffffff" fill-rule="evenodd"></path><path id="path3" d="M337.977 3.151 L 337.977 6.302 332.504 6.302 C 327.861 6.302,327.032 6.377,327.032 6.799 C 327.032 7.073,326.882 7.297,326.700 7.297 C 326.493 7.297,326.368 9.287,326.368 12.604 L 326.368 17.910 321.544 17.910 C 314.939 17.910,315.091 17.758,315.091 24.363 C 315.091 27.358,314.965 29.187,314.760 29.187 C 314.577 29.187,314.428 29.411,314.428 29.685 C 314.428 30.090,313.875 30.182,311.443 30.182 C 309.674 30.182,308.458 30.318,308.458 30.514 C 308.458 30.697,308.159 30.846,307.794 30.846 C 307.430 30.846,307.131 30.995,307.131 31.177 C 307.131 31.360,306.833 31.509,306.468 31.509 C 306.025 31.509,305.804 31.730,305.804 32.172 C 305.804 32.537,305.655 32.836,305.473 32.836 C 305.290 32.836,305.141 33.134,305.141 33.499 C 305.141 33.868,304.920 34.163,304.643 34.163 C 304.240 34.163,304.146 34.700,304.146 37.005 C 304.146 39.027,304.009 39.985,303.672 40.322 C 303.263 40.731,283.118 40.796,155.911 40.796 C 57.940 40.796,8.624 40.907,8.624 41.128 C 8.624 41.310,8.325 41.459,7.960 41.459 C 7.518 41.459,7.297 41.680,7.297 42.123 C 7.297 42.491,7.076 42.786,6.799 42.786 C 6.361 42.786,6.302 46.545,6.302 74.627 C 6.302 102.709,6.361 106.468,6.799 106.468 C 7.076 106.468,7.297 106.762,7.297 107.131 C 7.297 107.573,7.518 107.794,7.960 107.794 C 8.329 107.794,8.624 108.015,8.624 108.292 C 8.624 108.710,9.361 108.789,13.267 108.789 L 17.910 108.789 17.910 124.876 C 17.910 135.379,18.026 140.962,18.242 140.962 C 18.425 140.962,18.574 141.260,18.574 141.625 C 18.574 142.067,18.795 142.289,19.237 142.289 C 19.602 142.289,19.900 142.438,19.900 142.620 C 19.900 142.826,21.669 142.952,24.544 142.952 L 29.187 142.952 29.187 159.038 C 29.187 169.541,29.303 175.124,29.519 175.124 C 29.701 175.124,29.851 175.423,29.851 175.788 C 29.851 176.274,30.072 176.451,30.680 176.451 C 31.136 176.451,31.509 176.600,31.509 176.783 C 31.509 176.988,33.278 177.114,36.153 177.114 L 40.796 177.114 40.796 192.537 C 40.796 202.598,40.911 207.960,41.128 207.960 C 41.310 207.960,41.459 208.419,41.459 208.979 C 41.459 210.274,42.131 210.945,43.426 210.945 C 43.986 210.945,44.444 211.095,44.444 211.277 C 44.444 211.479,45.937 211.609,48.259 211.609 L 52.073 211.609 52.073 216.773 C 52.073 220.807,52.177 222.042,52.547 222.412 C 52.945 222.810,55.699 222.886,69.794 222.886 L 86.567 222.886 86.567 226.202 C 86.567 228.192,86.700 229.519,86.899 229.519 C 87.081 229.519,87.231 230.116,87.231 230.846 C 87.231 231.575,87.380 232.172,87.562 232.172 C 87.745 232.172,87.894 232.332,87.894 232.528 C 87.894 233.266,88.889 233.831,90.192 233.831 C 90.935 233.831,91.542 233.980,91.542 234.163 C 91.542 234.382,106.136 234.494,134.660 234.494 L 177.778 234.494 177.778 239.138 C 177.778 242.012,177.904 243.781,178.109 243.781 C 178.292 243.781,178.441 244.080,178.441 244.444 C 178.441 244.931,178.662 245.108,179.270 245.108 C 179.726 245.108,180.100 245.257,180.100 245.439 C 180.100 245.659,193.256 245.771,218.905 245.771 L 257.711 245.771 257.711 249.088 C 257.711 251.815,257.800 252.405,258.209 252.405 C 258.568 252.405,258.706 252.773,258.706 253.731 C 258.706 254.461,258.856 255.058,259.038 255.058 C 259.221 255.058,259.370 255.218,259.370 255.413 C 259.370 256.152,260.365 256.716,261.668 256.716 C 262.411 256.716,263.018 256.866,263.018 257.048 C 263.018 257.246,264.290 257.380,266.169 257.380 C 268.049 257.380,269.320 257.514,269.320 257.711 C 269.320 257.932,233.049 258.043,161.170 258.043 C 67.883 258.043,52.955 258.108,52.547 258.517 C 51.837 259.227,51.837 301.967,52.547 302.677 C 52.918 303.048,54.174 303.151,58.351 303.151 L 63.682 303.151 63.682 306.965 C 63.682 309.287,63.811 310.779,64.013 310.779 C 64.196 310.779,64.345 311.238,64.345 311.798 C 64.345 313.041,65.008 313.765,66.145 313.765 C 66.615 313.765,66.998 313.914,66.998 314.096 C 66.998 314.299,68.546 314.428,70.978 314.428 L 74.959 314.428 74.959 319.758 C 74.959 323.936,75.061 325.191,75.432 325.563 C 76.018 326.149,132.007 326.289,132.007 325.705 C 132.007 325.508,133.223 325.373,134.992 325.373 C 137.424 325.373,137.977 325.281,137.977 324.876 C 137.977 324.599,138.272 324.378,138.640 324.378 C 139.005 324.378,139.303 324.229,139.303 324.046 C 139.303 323.864,139.602 323.715,139.967 323.715 C 140.409 323.715,140.630 323.494,140.630 323.051 C 140.630 322.687,140.779 322.388,140.962 322.388 C 141.144 322.388,141.294 322.090,141.294 321.725 C 141.294 321.356,141.515 321.061,141.791 321.061 C 142.196 321.061,142.289 320.509,142.289 318.076 C 142.289 316.307,142.424 315.091,142.620 315.091 C 142.829 315.091,142.952 312.880,142.952 309.121 L 142.952 303.151 177.612 303.151 L 212.272 303.151 212.272 312.769 C 212.272 318.961,212.390 322.388,212.604 322.388 C 212.786 322.388,212.935 322.836,212.935 323.383 C 212.935 323.930,213.085 324.378,213.267 324.378 C 213.449 324.378,213.599 324.602,213.599 324.876 C 213.599 325.207,213.930 325.373,214.594 325.373 C 215.141 325.373,215.589 325.522,215.589 325.705 C 215.589 325.924,226.265 326.036,246.956 326.036 C 279.711 326.036,279.270 326.054,279.270 324.733 C 279.270 324.538,279.420 324.378,279.602 324.378 C 279.808 324.378,279.934 322.546,279.934 319.545 C 279.934 313.623,279.841 313.765,283.724 313.765 C 285.398 313.765,286.567 313.628,286.567 313.433 C 286.567 313.250,286.866 313.101,287.231 313.101 C 287.595 313.101,287.894 312.952,287.894 312.769 C 287.894 312.587,288.192 312.438,288.557 312.438 C 289.044 312.438,289.221 312.217,289.221 311.609 C 289.221 311.153,289.370 310.779,289.552 310.779 C 289.735 310.779,289.884 310.481,289.884 310.116 C 289.884 309.748,290.105 309.453,290.381 309.453 C 290.783 309.453,290.879 308.934,290.879 306.776 C 290.879 303.106,290.812 303.151,296.328 303.151 C 299.108 303.151,300.829 303.024,300.829 302.819 C 300.829 302.637,301.128 302.488,301.493 302.488 C 301.979 302.488,302.156 302.266,302.156 301.658 C 302.156 301.202,302.305 300.829,302.488 300.829 C 302.693 300.829,302.819 299.060,302.819 296.186 L 302.819 291.542 307.721 291.542 C 312.243 291.542,312.660 291.491,313.101 290.879 C 313.364 290.514,313.770 290.216,314.004 290.216 C 314.339 290.216,314.428 287.970,314.428 279.436 L 314.428 268.657 319.071 268.657 C 321.946 268.657,323.715 268.530,323.715 268.325 C 323.715 268.143,324.013 267.993,324.378 267.993 C 324.820 267.993,325.041 267.772,325.041 267.330 C 325.041 266.965,325.191 266.667,325.373 266.667 C 325.589 266.667,325.705 261.802,325.705 252.736 C 325.705 243.671,325.589 238.806,325.373 238.806 C 325.191 238.806,325.041 238.348,325.041 237.787 C 325.041 236.492,324.370 235.821,323.075 235.821 C 322.515 235.821,322.056 235.672,322.056 235.489 C 322.056 235.287,320.564 235.158,318.242 235.158 L 314.428 235.158 314.428 225.539 C 314.428 217.210,314.361 215.920,313.930 215.920 C 313.596 215.920,313.433 215.586,313.433 214.902 C 313.433 213.659,312.770 212.935,311.632 212.935 C 311.163 212.935,310.779 212.786,310.779 212.604 C 310.779 212.401,309.232 212.272,306.799 212.272 C 304.610 212.272,302.819 212.187,302.819 212.082 C 302.819 211.292,303.974 210.945,306.610 210.945 C 308.284 210.945,309.453 210.809,309.453 210.614 C 309.453 210.431,309.751 210.282,310.116 210.282 C 310.485 210.282,310.779 210.061,310.779 209.784 C 310.779 209.508,311.074 209.287,311.443 209.287 C 311.885 209.287,312.106 209.066,312.106 208.624 C 312.106 208.259,312.255 207.960,312.438 207.960 C 312.620 207.960,312.769 207.662,312.769 207.297 C 312.769 206.932,312.919 206.633,313.101 206.633 C 313.296 206.633,313.433 205.473,313.433 203.814 C 313.433 201.529,313.527 200.995,313.930 200.995 C 314.363 200.995,314.428 199.463,314.428 189.197 C 314.428 175.419,314.134 176.451,318.053 176.451 C 319.616 176.451,320.730 176.313,320.730 176.119 C 320.730 175.937,321.028 175.788,321.393 175.788 C 321.758 175.788,322.056 175.638,322.056 175.456 C 322.056 175.274,322.430 175.124,322.886 175.124 C 323.494 175.124,323.715 174.947,323.715 174.461 C 323.715 174.096,323.864 173.798,324.046 173.798 C 324.229 173.798,324.378 173.425,324.378 172.968 C 324.378 172.512,324.527 172.139,324.710 172.139 C 324.905 172.139,325.041 170.978,325.041 169.320 C 325.041 167.662,325.178 166.501,325.373 166.501 C 325.588 166.501,325.705 162.355,325.705 154.726 L 325.705 142.952 328.856 142.952 C 330.735 142.952,332.007 142.818,332.007 142.620 C 332.007 142.438,332.610 142.289,333.348 142.289 C 335.193 142.289,336.318 141.163,336.318 139.319 C 336.318 138.581,336.468 137.977,336.650 137.977 C 336.866 137.977,336.982 132.891,336.982 123.383 L 336.982 108.789 340.299 108.789 C 343.026 108.789,343.615 108.701,343.615 108.292 C 343.615 107.933,343.984 107.794,344.942 107.794 C 345.672 107.794,346.269 107.645,346.269 107.463 C 346.269 107.280,346.429 107.131,346.624 107.131 C 347.363 107.131,347.927 106.136,347.927 104.833 C 347.927 104.090,348.076 103.483,348.259 103.483 C 348.475 103.483,348.590 98.397,348.590 88.889 L 348.590 74.295 351.741 74.295 C 353.621 74.295,354.892 74.161,354.892 73.964 C 354.892 73.781,355.496 73.632,356.234 73.632 C 358.078 73.632,359.204 72.506,359.204 70.662 C 359.204 69.924,359.353 69.320,359.536 69.320 C 359.749 69.320,359.867 66.114,359.867 60.365 L 359.867 51.410 364.858 51.410 C 371.655 51.410,371.476 51.584,371.476 44.957 L 371.476 40.133 385.738 40.133 L 400.000 40.133 400.000 20.066 L 400.000 0.000 368.988 0.000 L 337.977 0.000 337.977 3.151 M292.206 97.512 C 292.206 97.711,290.879 97.844,288.889 97.844 C 286.899 97.844,285.572 97.977,285.572 98.176 C 285.572 98.358,284.975 98.507,284.245 98.507 C 283.389 98.507,282.919 98.658,282.919 98.932 C 282.919 99.165,282.620 99.571,282.255 99.834 C 281.793 100.167,281.592 100.693,281.592 101.566 C 281.592 102.459,281.449 102.819,281.095 102.819 C 280.660 102.819,280.597 104.680,280.597 117.579 L 280.597 132.338 277.446 132.338 C 275.567 132.338,274.295 132.472,274.295 132.670 C 274.295 132.852,273.691 133.002,272.953 133.002 C 271.109 133.002,269.983 134.127,269.983 135.972 C 269.983 136.710,269.834 137.313,269.652 137.313 C 269.436 137.313,269.320 142.399,269.320 151.907 L 269.320 166.501 266.169 166.501 C 264.290 166.501,263.018 166.635,263.018 166.833 C 263.018 167.015,262.411 167.164,261.668 167.164 C 260.365 167.164,259.370 167.729,259.370 168.467 C 259.370 168.663,259.221 168.823,259.038 168.823 C 258.856 168.823,258.706 169.420,258.706 170.149 C 258.706 171.107,258.568 171.476,258.209 171.476 C 257.774 171.476,257.711 173.337,257.711 186.235 L 257.711 200.995 240.299 200.995 L 222.886 200.995 222.886 196.352 C 222.886 193.477,222.759 191.708,222.554 191.708 C 222.371 191.708,222.222 191.335,222.222 190.879 C 222.222 190.216,222.056 190.050,221.393 190.050 C 220.937 190.050,220.564 189.900,220.564 189.718 C 220.564 189.499,207.407 189.386,181.758 189.386 L 142.952 189.386 142.952 186.235 C 142.952 184.356,142.818 183.085,142.620 183.085 C 142.438 183.085,142.289 182.413,142.289 181.592 C 142.289 180.601,142.146 180.100,141.864 180.100 C 141.631 180.100,141.225 179.801,140.962 179.436 C 140.629 178.974,140.103 178.773,139.230 178.773 C 138.541 178.773,137.977 178.624,137.977 178.441 C 137.977 178.223,129.022 178.109,111.774 178.109 L 85.572 178.109 85.572 162.023 C 85.572 151.520,85.457 145.937,85.240 145.937 C 85.058 145.937,84.909 145.564,84.909 145.108 C 84.909 144.500,84.732 144.279,84.245 144.279 C 83.881 144.279,83.582 144.129,83.582 143.947 C 83.582 143.742,81.813 143.615,78.939 143.615 L 74.295 143.615 74.295 128.358 C 74.295 118.408,74.180 113.101,73.964 113.101 C 73.781 113.101,73.632 112.643,73.632 112.082 C 73.632 110.787,72.961 110.116,71.665 110.116 C 71.105 110.116,70.647 109.967,70.647 109.784 C 70.647 109.583,69.154 109.453,66.833 109.453 L 63.018 109.453 63.018 103.317 L 63.018 97.181 177.612 97.181 C 253.787 97.181,292.206 97.292,292.206 97.512 " stroke="none" fill="#ffffff" fill-rule="evenodd"></path><path id="path4" d="M337.977 3.151 L 337.977 6.302 332.504 6.302 C 327.861 6.302,327.032 6.377,327.032 6.799 C 327.032 7.073,326.882 7.297,326.700 7.297 C 326.493 7.297,326.368 9.287,326.368 12.604 L 326.368 17.910 321.544 17.910 C 314.939 17.910,315.091 17.758,315.091 24.363 C 315.091 27.358,314.965 29.187,314.760 29.187 C 314.577 29.187,314.428 29.411,314.428 29.685 C 314.428 30.090,313.875 30.182,311.443 30.182 C 309.674 30.182,308.458 30.318,308.458 30.514 C 308.458 30.697,308.159 30.846,307.794 30.846 C 307.430 30.846,307.131 30.995,307.131 31.177 C 307.131 31.360,306.833 31.509,306.468 31.509 C 306.025 31.509,305.804 31.730,305.804 32.172 C 305.804 32.537,305.655 32.836,305.473 32.836 C 305.290 32.836,305.141 33.134,305.141 33.499 C 305.141 33.868,304.920 34.163,304.643 34.163 C 304.240 34.163,304.146 34.700,304.146 37.005 C 304.146 39.027,304.009 39.985,303.672 40.322 C 303.263 40.731,283.118 40.796,155.911 40.796 C 57.940 40.796,8.624 40.907,8.624 41.128 C 8.624 41.310,8.325 41.459,7.960 41.459 C 7.518 41.459,7.297 41.680,7.297 42.123 C 7.297 42.491,7.076 42.786,6.799 42.786 C 6.361 42.786,6.302 46.545,6.302 74.627 C 6.302 102.709,6.361 106.468,6.799 106.468 C 7.076 106.468,7.297 106.762,7.297 107.131 C 7.297 107.573,7.518 107.794,7.960 107.794 C 8.329 107.794,8.624 108.015,8.624 108.292 C 8.624 108.710,9.361 108.789,13.267 108.789 L 17.910 108.789 17.910 124.876 C 17.910 135.379,18.026 140.962,18.242 140.962 C 18.425 140.962,18.574 141.260,18.574 141.625 C 18.574 142.067,18.795 142.289,19.237 142.289 C 19.602 142.289,19.900 142.438,19.900 142.620 C 19.900 142.826,21.669 142.952,24.544 142.952 L 29.187 142.952 29.187 159.038 C 29.187 169.541,29.303 175.124,29.519 175.124 C 29.701 175.124,29.851 175.423,29.851 175.788 C 29.851 176.274,30.072 176.451,30.680 176.451 C 31.136 176.451,31.509 176.600,31.509 176.783 C 31.509 176.988,33.278 177.114,36.153 177.114 L 40.796 177.114 40.796 192.537 C 40.796 202.598,40.911 207.960,41.128 207.960 C 41.310 207.960,41.459 208.419,41.459 208.979 C 41.459 210.274,42.131 210.945,43.426 210.945 C 43.986 210.945,44.444 211.095,44.444 211.277 C 44.444 211.479,45.937 211.609,48.259 211.609 L 52.073 211.609 52.073 216.773 C 52.073 220.807,52.177 222.042,52.547 222.412 C 52.945 222.810,55.699 222.886,69.794 222.886 L 86.567 222.886 86.567 226.202 C 86.567 228.192,86.700 229.519,86.899 229.519 C 87.081 229.519,87.231 230.116,87.231 230.846 C 87.231 231.575,87.380 232.172,87.562 232.172 C 87.745 232.172,87.894 232.332,87.894 232.528 C 87.894 233.266,88.889 233.831,90.192 233.831 C 90.935 233.831,91.542 233.980,91.542 234.163 C 91.542 234.382,106.136 234.494,134.660 234.494 L 177.778 234.494 177.778 239.138 C 177.778 242.012,177.904 243.781,178.109 243.781 C 178.292 243.781,178.441 244.080,178.441 244.444 C 178.441 244.931,178.662 245.108,179.270 245.108 C 179.726 245.108,180.100 245.257,180.100 245.439 C 180.100 245.659,193.256 245.771,218.905 245.771 L 257.711 245.771 257.711 249.088 C 257.711 251.815,257.800 252.405,258.209 252.405 C 258.568 252.405,258.706 252.773,258.706 253.731 C 258.706 254.461,258.856 255.058,259.038 255.058 C 259.221 255.058,259.370 255.218,259.370 255.413 C 259.370 256.152,260.365 256.716,261.668 256.716 C 262.411 256.716,263.018 256.866,263.018 257.048 C 263.018 257.246,264.290 257.380,266.169 257.380 C 268.049 257.380,269.320 257.514,269.320 257.711 C 269.320 257.932,233.049 258.043,161.170 258.043 C 67.883 258.043,52.955 258.108,52.547 258.517 C 51.837 259.227,51.837 301.967,52.547 302.677 C 52.918 303.048,54.174 303.151,58.351 303.151 L 63.682 303.151 63.682 306.965 C 63.682 309.287,63.811 310.779,64.013 310.779 C 64.196 310.779,64.345 311.238,64.345 311.798 C 64.345 313.041,65.008 313.765,66.145 313.765 C 66.615 313.765,66.998 313.914,66.998 314.096 C 66.998 314.299,68.546 314.428,70.978 314.428 L 74.959 314.428 74.959 319.758 C 74.959 323.936,75.061 325.191,75.432 325.563 C 76.018 326.149,132.007 326.289,132.007 325.705 C 132.007 325.508,133.223 325.373,134.992 325.373 C 137.424 325.373,137.977 325.281,137.977 324.876 C 137.977 324.599,138.272 324.378,138.640 324.378 C 139.005 324.378,139.303 324.229,139.303 324.046 C 139.303 323.864,139.602 323.715,139.967 323.715 C 140.409 323.715,140.630 323.494,140.630 323.051 C 140.630 322.687,140.779 322.388,140.962 322.388 C 141.144 322.388,141.294 322.090,141.294 321.725 C 141.294 321.356,141.515 321.061,141.791 321.061 C 142.196 321.061,142.289 320.509,142.289 318.076 C 142.289 316.307,142.424 315.091,142.620 315.091 C 142.829 315.091,142.952 312.880,142.952 309.121 L 142.952 303.151 177.612 303.151 L 212.272 303.151 212.272 312.769 C 212.272 318.961,212.390 322.388,212.604 322.388 C 212.786 322.388,212.935 322.836,212.935 323.383 C 212.935 323.930,213.085 324.378,213.267 324.378 C 213.449 324.378,213.599 324.602,213.599 324.876 C 213.599 325.207,213.930 325.373,214.594 325.373 C 215.141 325.373,215.589 325.522,215.589 325.705 C 215.589 325.924,226.265 326.036,246.956 326.036 C 279.711 326.036,279.270 326.054,279.270 324.733 C 279.270 324.538,279.420 324.378,279.602 324.378 C 279.808 324.378,279.934 322.546,279.934 319.545 C 279.934 313.623,279.841 313.765,283.724 313.765 C 285.398 313.765,286.567 313.628,286.567 313.433 C 286.567 313.250,286.866 313.101,287.231 313.101 C 287.595 313.101,287.894 312.952,287.894 312.769 C 287.894 312.587,288.192 312.438,288.557 312.438 C 289.044 312.438,289.221 312.217,289.221 311.609 C 289.221 311.153,289.370 310.779,289.552 310.779 C 289.735 310.779,289.884 310.481,289.884 310.116 C 289.884 309.748,290.105 309.453,290.381 309.453 C 290.783 309.453,290.879 308.934,290.879 306.776 C 290.879 303.106,290.812 303.151,296.328 303.151 C 299.108 303.151,300.829 303.024,300.829 302.819 C 300.829 302.637,301.128 302.488,301.493 302.488 C 301.979 302.488,302.156 302.266,302.156 301.658 C 302.156 301.202,302.305 300.829,302.488 300.829 C 302.693 300.829,302.819 299.060,302.819 296.186 L 302.819 291.542 307.721 291.542 C 312.243 291.542,312.660 291.491,313.101 290.879 C 313.364 290.514,313.770 290.216,314.004 290.216 C 314.339 290.216,314.428 287.970,314.428 279.436 L 314.428 268.657 319.071 268.657 C 321.946 268.657,323.715 268.530,323.715 268.325 C 323.715 268.143,324.013 267.993,324.378 267.993 C 324.820 267.993,325.041 267.772,325.041 267.330 C 325.041 266.965,325.191 266.667,325.373 266.667 C 325.589 266.667,325.705 261.802,325.705 252.736 C 325.705 243.671,325.589 238.806,325.373 238.806 C 325.191 238.806,325.041 238.348,325.041 237.787 C 325.041 236.492,324.370 235.821,323.075 235.821 C 322.515 235.821,322.056 235.672,322.056 235.489 C 322.056 235.287,320.564 235.158,318.242 235.158 L 314.428 235.158 314.428 225.539 C 314.428 217.210,314.361 215.920,313.930 215.920 C 313.596 215.920,313.433 215.586,313.433 214.902 C 313.433 213.659,312.770 212.935,311.632 212.935 C 311.163 212.935,310.779 212.786,310.779 212.604 C 310.779 212.401,309.232 212.272,306.799 212.272 C 304.610 212.272,302.819 212.187,302.819 212.082 C 302.819 211.292,303.974 210.945,306.610 210.945 C 308.284 210.945,309.453 210.809,309.453 210.614 C 309.453 210.431,309.751 210.282,310.116 210.282 C 310.485 210.282,310.779 210.061,310.779 209.784 C 310.779 209.508,311.074 209.287,311.443 209.287 C 311.885 209.287,312.106 209.066,312.106 208.624 C 312.106 208.259,312.255 207.960,312.438 207.960 C 312.620 207.960,312.769 207.662,312.769 207.297 C 312.769 206.932,312.919 206.633,313.101 206.633 C 313.296 206.633,313.433 205.473,313.433 203.814 C 313.433 201.529,313.527 200.995,313.930 200.995 C 314.363 200.995,314.428 199.463,314.428 189.197 C 314.428 175.419,314.134 176.451,318.053 176.451 C 319.616 176.451,320.730 176.313,320.730 176.119 C 320.730 175.937,321.028 175.788,321.393 175.788 C 321.758 175.788,322.056 175.638,322.056 175.456 C 322.056 175.274,322.430 175.124,322.886 175.124 C 323.494 175.124,323.715 174.947,323.715 174.461 C 323.715 174.096,323.864 173.798,324.046 173.798 C 324.229 173.798,324.378 173.425,324.378 172.968 C 324.378 172.512,324.527 172.139,324.710 172.139 C 324.905 172.139,325.041 170.978,325.041 169.320 C 325.041 167.662,325.178 166.501,325.373 166.501 C 325.588 166.501,325.705 162.355,325.705 154.726 L 325.705 142.952 328.856 142.952 C 330.735 142.952,332.007 142.818,332.007 142.620 C 332.007 142.438,332.610 142.289,333.348 142.289 C 335.193 142.289,336.318 141.163,336.318 139.319 C 336.318 138.581,336.468 137.977,336.650 137.977 C 336.866 137.977,336.982 132.891,336.982 123.383 L 336.982 108.789 340.299 108.789 C 343.026 108.789,343.615 108.701,343.615 108.292 C 343.615 107.933,343.984 107.794,344.942 107.794 C 345.672 107.794,346.269 107.645,346.269 107.463 C 346.269 107.280,346.429 107.131,346.624 107.131 C 347.363 107.131,347.927 106.136,347.927 104.833 C 347.927 104.090,348.076 103.483,348.259 103.483 C 348.475 103.483,348.590 98.397,348.590 88.889 L 348.590 74.295 351.741 74.295 C 353.621 74.295,354.892 74.161,354.892 73.964 C 354.892 73.781,355.496 73.632,356.234 73.632 C 358.078 73.632,359.204 72.506,359.204 70.662 C 359.204 69.924,359.353 69.320,359.536 69.320 C 359.749 69.320,359.867 66.114,359.867 60.365 L 359.867 51.410 364.858 51.410 C 371.655 51.410,371.476 51.584,371.476 44.957 L 371.476 40.133 385.738 40.133 L 400.000 40.133 400.000 20.066 L 400.000 0.000 368.988 0.000 L 337.977 0.000 337.977 3.151 M292.206 97.512 C 292.206 97.711,290.879 97.844,288.889 97.844 C 286.899 97.844,285.572 97.977,285.572 98.176 C 285.572 98.358,284.975 98.507,284.245 98.507 C 283.389 98.507,282.919 98.658,282.919 98.932 C 282.919 99.165,282.620 99.571,282.255 99.834 C 281.793 100.167,281.592 100.693,281.592 101.566 C 281.592 102.459,281.449 102.819,281.095 102.819 C 280.660 102.819,280.597 104.680,280.597 117.579 L 280.597 132.338 277.446 132.338 C 275.567 132.338,274.295 132.472,274.295 132.670 C 274.295 132.852,273.691 133.002,272.953 133.002 C 271.109 133.002,269.983 134.127,269.983 135.972 C 269.983 136.710,269.834 137.313,269.652 137.313 C 269.436 137.313,269.320 142.399,269.320 151.907 L 269.320 166.501 266.169 166.501 C 264.290 166.501,263.018 166.635,263.018 166.833 C 263.018 167.015,262.411 167.164,261.668 167.164 C 260.365 167.164,259.370 167.729,259.370 168.467 C 259.370 168.663,259.221 168.823,259.038 168.823 C 258.856 168.823,258.706 169.420,258.706 170.149 C 258.706 171.107,258.568 171.476,258.209 171.476 C 257.774 171.476,257.711 173.337,257.711 186.235 L 257.711 200.995 240.299 200.995 L 222.886 200.995 222.886 196.352 C 222.886 193.477,222.759 191.708,222.554 191.708 C 222.371 191.708,222.222 191.335,222.222 190.879 C 222.222 190.216,222.056 190.050,221.393 190.050 C 220.937 190.050,220.564 189.900,220.564 189.718 C 220.564 189.499,207.407 189.386,181.758 189.386 L 142.952 189.386 142.952 186.235 C 142.952 184.356,142.818 183.085,142.620 183.085 C 142.438 183.085,142.289 182.413,142.289 181.592 C 142.289 180.601,142.146 180.100,141.864 180.100 C 141.631 180.100,141.225 179.801,140.962 179.436 C 140.629 178.974,140.103 178.773,139.230 178.773 C 138.541 178.773,137.977 178.624,137.977 178.441 C 137.977 178.223,129.022 178.109,111.774 178.109 L 85.572 178.109 85.572 162.023 C 85.572 151.520,85.457 145.937,85.240 145.937 C 85.058 145.937,84.909 145.564,84.909 145.108 C 84.909 144.500,84.732 144.279,84.245 144.279 C 83.881 144.279,83.582 144.129,83.582 143.947 C 83.582 143.742,81.813 143.615,78.939 143.615 L 74.295 143.615 74.295 128.358 C 74.295 118.408,74.180 113.101,73.964 113.101 C 73.781 113.101,73.632 112.643,73.632 112.082 C 73.632 110.787,72.961 110.116,71.665 110.116 C 71.105 110.116,70.647 109.967,70.647 109.784 C 70.647 109.583,69.154 109.453,66.833 109.453 L 63.018 109.453 63.018 103.317 L 63.018 97.181 177.612 97.181 C 253.787 97.181,292.206 97.292,292.206 97.512 " stroke="none" fill="#ffffff" fill-rule="evenodd"></path></g></svg>